<svg width="32" height="32" viewBox="0 0 32 32" fill="none" xmlns="http://www.w3.org/2000/svg">
<g clip-path="url(#clip0_1_35)">
<path d="M28.5858 0.585771C29.3668 -0.195271 30.6328 -0.195259 31.4139 0.585771C32.1949 1.36682 32.1949 2.63285 31.4139 3.4139L18.828 15.9998L31.4139 28.5858C32.1948 29.3668 32.1949 30.6329 31.4139 31.4139C30.6329 32.1949 29.3668 32.1948 28.5858 31.4139L15.9998 18.828L3.41389 31.4139C2.63284 32.1949 1.36681 32.1949 0.585763 31.4139C-0.195265 30.6328 -0.195275 29.3668 0.585763 28.5858L13.1717 15.9998L0.585763 3.4139C-0.195284 2.63285 -0.195281 1.36682 0.585763 0.585771C1.36681 -0.195277 2.63284 -0.195277 3.41389 0.585771L15.9998 13.1717L28.5858 0.585771Z" fill="white"/>
</g>
<defs>
<clipPath id="clip0_1_35">
<rect width="32" height="32" fill="white"/>
</clipPath>
</defs>
</svg>
